<svg width="878" height="829" viewBox="0 0 878 829" fill="none" xmlns="http://www.w3.org/2000/svg">
<circle cx="434.5" cy="453.5" r="375" stroke="url(#paint0_linear_0_1)"/>
<path d="M759.693 641.25C794.634 580.729 811.994 511.659 809.818 441.809C807.642 371.96 786.018 304.104 747.377 245.875L744.248 247.951C782.503 305.598 803.911 372.775 806.065 441.926C808.219 511.077 791.033 579.457 756.441 639.372L759.693 641.25Z" fill="#D9D9D9"/>
<circle cx="436" cy="453" r="214" fill="url(#paint1_linear_0_1)"/>
<circle cx="27" cy="27" r="27" transform="matrix(0.707107 0.707107 0.707107 -0.707107 812 660.184)" fill="url(#paint2_linear_0_1)"/>
<circle cx="27" cy="27" r="27" transform="matrix(0.707107 0.707107 0.707107 -0.707107 796 140.184)" fill="url(#paint3_linear_0_1)"/>
<circle cx="27" cy="27" r="27" transform="matrix(0.707107 0.707107 0.707107 -0.707107 118 27.1838)" fill="url(#paint4_linear_0_1)"/>
<circle cx="27" cy="27" r="27" transform="matrix(0.707107 0.707107 0.707107 -0.707107 -11 758.184)" fill="url(#paint5_linear_0_1)"/>
<defs>
<linearGradient id="paint0_linear_0_1" x1="810" y1="453" x2="59" y2="453" gradientUnits="userSpaceOnUse">
<stop stop-color="white"/>
<stop offset="0.995243" stop-color="white" stop-opacity="0"/>
</linearGradient>
<linearGradient id="paint1_linear_0_1" x1="435.715" y1="239" x2="435.715" y2="667" gradientUnits="userSpaceOnUse">
<stop stop-color="#A3B18A"/>
<stop offset="1" stop-color="#DAD7CD" stop-opacity="0.01"/>
</linearGradient>
<linearGradient id="paint2_linear_0_1" x1="26.964" y1="0" x2="26.964" y2="54" gradientUnits="userSpaceOnUse">
<stop stop-color="#DAD7CD"/>
<stop offset="1" stop-color="#A3B18A" stop-opacity="0.11"/>
</linearGradient>
<linearGradient id="paint3_linear_0_1" x1="26.964" y1="0" x2="26.964" y2="54" gradientUnits="userSpaceOnUse">
<stop stop-color="#DAD7CD"/>
<stop offset="1" stop-color="#A3B18A" stop-opacity="0.11"/>
</linearGradient>
<linearGradient id="paint4_linear_0_1" x1="26.964" y1="0" x2="26.964" y2="54" gradientUnits="userSpaceOnUse">
<stop stop-color="#DAD7CD"/>
<stop offset="1" stop-color="#A3B18A" stop-opacity="0.11"/>
</linearGradient>
<linearGradient id="paint5_linear_0_1" x1="26.964" y1="0" x2="26.964" y2="54" gradientUnits="userSpaceOnUse">
<stop stop-color="#DAD7CD"/>
<stop offset="1" stop-color="#A3B18A" stop-opacity="0.11"/>
</linearGradient>
</defs>
</svg>
